# AST/ASF file generated using VICON BodyLanguage
# -----------------------------------------------
:version 1.10
:name VICON
:units
  mass 1.0
  length 0.45
  angle deg
:documentation
   .ast/.asf automatically generated from VICON data using
   VICON BodyBuilder and BodyLanguage model FoxedUp or BRILLIANT.MOD
:root
   order TX TY TZ RX RY RZ
   axis XYZ
   position 0 0 0  
   orientation 0 0 0 
:bonedata
  begin
     id 1 
     name lhipjoint
     direction 0.584852 -0.759097 0.285867 
     length 2.43633 
     axis 0 0 0  XYZ
  end
  begin
     id 2 
     name lfemur
     direction 0.34202 -0.939693 0  
     length 7.14704  
     axis 0 0 20  XYZ
    dof rx ry rz
    limits (-160.0 20.0)
           (-70.0 70.0)
           (-60.0 70.0)
  end
  begin
     id 3 
     name ltibia
     direction 0.342022 -0.939692 0   
     length 7.68483   
     axis 0 0 20   XYZ
    dof rx
    limits (-10.0 170.0)
  end
  begin
     id 4 
     name lfoot
     direction 0.0999605 -0.274639 0.956337   
     length 2.40452   
     axis -90 7.62852e-016 20   XYZ
    dof rx rz
    limits (-45.0 90.0)
           (-70.0 20.0)
  end
  begin
     id 5 
     name ltoes
     direction 1.53468e-011 -4.21881e-011 1   
     length 1.19837   
     axis -90 7.62852e-016 20   XYZ
    dof rx
    limits (-90.0 20.0)
  end
  begin
     id 6 
     name rhipjoint
     direction -0.569886 -0.769002 0.289597   
     length 2.40495  
     axis 0 0 0  XYZ 
  end
  begin
     id 7 
     name rfemur
     direction -0.34202 -0.939693 0   
     length 7.45086   
     axis 0 0 -20   XYZ
    dof rx ry rz
    limits (-160.0 20.0)
           (-70.0 70.0)
           (-70.0 60.0)
  end
  begin
     id 8 
     name rtibia
     direction -0.34202 -0.939693 0   
     length 7.76831   
     axis 0 0 -20   XYZ
    dof rx
    limits (-10.0 170.0)
 end
 begin
     id 9 
     name rfoot
     direction -0.0798572 -0.219406 0.97236   
     length 2.35911  
     axis -90 -7.62852e-016 -20   XYZ
    dof rx rz
    limits (-45.0 90.0)
           (-20.0 70.0)
  end
  begin
     id 10 
     name rtoes
     direction -1.53469e-011 -4.21728e-011 1   
     length 1.18261   
     axis -90 -7.62852e-016 -20   XYZ
    dof rx
    limits (-90.0 20.0)
  end
  begin
     id 11 
     name lowerback
     direction 0.0242088 0.999437 0.0232389   
     length 2.1561   
     axis 0 0 0   XYZ
    dof rx ry rz
    limits (-20.0 45.0)
           (-30.0 30.0)
           (-30.0 30.0)
  end
  begin
     id 12 
     name upperback
     direction -0.0356893 0.999013 -0.0264323   
     length 2.14431   
     axis 0 0 0   XYZ
    dof rx ry rz
    limits (-20.0 45.0)
           (-30.0 30.0)
           (-30.0 30.0)
  end
  begin
     id 13 
     name thorax
     direction -0.0472163 0.998194 -0.0371284   
     length 2.16169   
     axis 0 0 0   XYZ
    dof rx ry rz
    limits (-20.0 45.0)
           (-30.0 30.0)
           (-30.0 30.0)
  end
  begin
     id 14 
     name lowerneck
     direction 0.00863244 0.999921 0.00911972   
     length 1.58651   
     axis 0 0 0   XYZ
    dof rx ry rz
    limits (-20.0 45.0)
           (-30.0 30.0)
           (-30.0 30.0)
  end
  begin
     id 15 
     name upperneck
     direction 0.149523 0.979068 -0.138086   
     length 1.57486   
     axis 0 0 0   XYZ
    dof rx ry rz
    limits (-20.0 45.0)
           (-30.0 30.0)
           (-30.0 30.0)
  end
  begin
     id 16
     name head
     direction 0.0445219 0.997708 -0.0509576  
     length 1.6019  
     axis 0 0 0   XYZ
    dof rx ry rz
    limits (-20.0 45.0)
           (-30.0 30.0)
           (-30.0 30.0)
  end
  begin
     id 17 
     name lclavicle
     direction 0.911271 0.381667 -0.154644  
     length 3.80848  
     axis 0 0 0   XYZ
    dof ry rz
    limits (-20.0 10.0)
           (0.0 20.0)
  end
  begin
     id 18 
     name lhumerus
     direction 1 -4.49003e-011 2.1308e-027   
     length 5.19069   
     axis 180 -30 -90   XYZ
    dof rx ry rz
    limits (-60.0 90.0)
           (-90.0 90.0)
           (-90.0 90.0)
  end
  begin
     id 19
     name lradius
     direction 1 -4.48914e-011 4.01554e-027   
     length 3.30016   
     axis 180 -30 -90   XYZ
    dof rx
    limits (-10.0 170.0)
  end
  begin
     id 20
     name lwrist
     direction 1 -4.49003e-011 1.1934e-026   
     length 1.65008   
     axis -8.46377e-015 90 90   XYZ
    dof ry
    limits (-180.0 0.0)
 end
  begin
     id 21 
     name lhand
     direction 1 -4.49034e-011 2.38659e-026   
     length 0.707698   
     axis -1.52313e-014 90 90   XYZ
    dof rx rz
    limits (-90.0 90.0)
           (-45.0 45.0)
  end
  begin
     id 22 
     name lfingers
     direction 1 -4.48691e-011 4.77775e-026   
     length 0.570564   
     axis -3.04623e-014 90 90   XYZ
    dof rx
    limits (0.0 90.0)
  end
  begin
     id 23
     name lthumb
     direction 0.707107 -6.34832e-011 0.707107   
     length 0.819219   
     axis -90 45 -1.62303e-014   XYZ
    dof rx rz
    limits (-45.0 45.0)
           (-45.0 45.0)
  end
  begin
     id 24 
     name rclavicle
     direction -0.815579 0.573708 -0.0754329   
     length 3.54371  
     axis 0 0 0   XYZ 
    dof ry rz
    limits (-10.0 20.0)
           (-20.0 0.0)
  end
  begin
     id 25 
     name rhumerus
     direction -1 -4.48956e-011 3.05351e-028  
     length 5.23924   
     axis 180 30 90   XYZ
    dof rx ry rz
    limits (-90.0 60.0)
           (-90.0 90.0)
           (-90.0 90.0)
  end
  begin
     id 26 
     name rradius
     direction -1 -4.49013e-011 3.53849e-027   
     length 3.32953   
     axis 180 30 90   XYZ
    dof rx
    limits (-10.0 170.0)
  end
  begin
     id 27 
     name rwrist
     direction -1 -4.48901e-011 1.19374e-026   
     length 1.66477   
     axis -8.46377e-015 -90 -90   XYZ
    dof ry
    limits (-180.0 0.0)
  end
  begin
     id 28
     name rhand
     direction -1 -4.48877e-011 2.38764e-026   
     length 0.607414   
     axis -1.52313e-014 -90 -90   XYZ
    dof rx rz
    limits (-90.0 90.0)
           (-45.0 45.0)
  end
  begin
     id 29
     name rfingers
     direction -1 -4.48882e-011 4.77521e-026   
     length 0.489712   
     axis -3.04623e-014 -90 -90   XYZ
    dof rx
    limits (0.0 90.0)
  end
  begin
     id 30
     name rthumb
     direction -0.707107 -6.34974e-011 0.707107   
     length 0.703132   
     axis -90 -45 1.62303e-014   XYZ
    dof rx rz
    limits (-45.0 45.0)
           (-45.0 45.0)
  end
:hierarchy
  begin
    root lhipjoint rhipjoint lowerback
    lhipjoint lfemur
    lfemur ltibia
    ltibia lfoot
    lfoot ltoes
    rhipjoint rfemur
    rfemur rtibia
    rtibia rfoot
    rfoot rtoes
    lowerback upperback
    upperback thorax
    thorax lowerneck lclavicle rclavicle
    lowerneck upperneck
    upperneck head
    lclavicle lhumerus
    lhumerus lradius
    lradius lwrist
    lwrist lhand lthumb
    lhand lfingers
    rclavicle rhumerus
    rhumerus rradius
    rradius rwrist
    rwrist rhand rthumb
    rhand rfingers
  end

#!OML:ASF E:\VariousWalksJay\Project 1\Capture day 1\Session 1\Actor2.ASF
:FULLY-SPECIFIED
:DEGREES
237
root 4.42992 16.9737 0.0497834 3.16377 -1.15235 -10.4031
lowerback 4.52882 -1.14718 13.0593
upperback 7.30071 -1.43593 1.18368
thorax 4.96676 -0.0850558 -6.04161
lowerneck -9.13955 -6.36356 -3.92516
upperneck 9.98493 -9.62418 12.7285
head 5.33897 -4.1 3.86479
rclavicle -8.64713e-015 2.14687e-014
rhumerus -11.2444 18.9317 -89.3145
rradius 30.9591
rwrist -3.37674
rhand -24.0337 -11.6073
rfingers 7.12502
rthumb 2.44482 -41.573
lclavicle -8.64713e-015 2.14687e-014
lhumerus -9.15255 -17.3786 88.9901
lradius 31.0653
lwrist 10.9949
lhand -31.9187 -7.67075
lfingers 7.12502
lthumb -5.17019 22.2462
rfemur -28.7782 0.00585404 29.876
rtibia 43.6386
rfoot -13.8819 -4.9377
rtoes -1.97992
lfemur -16.7341 17.2555 -9.43379
ltibia 55.1926
lfoot -29.2805 23.5376
ltoes -5.79551
238
root 4.45742 16.9579 0.0269849 2.87031 -1.42263 -10.4305
lowerback 4.34276 -1.15485 12.9093
upperback 7.3498 -1.48273 1.19141
thorax 5.11548 -0.105303 -5.95319
lowerneck -8.8566 -6.27761 -3.79841
upperneck 10.36 -9.55168 12.5973
head 5.38631 -4.06376 3.8168
rclavicle 1.17283e-014 6.75868e-015
rhumerus -10.8799 19.9948 -89.1117
rradius 31.0877
rwrist -3.73673
rhand -23.1741 -12.0428
rfingers 7.12502
rthumb 3.27497 -41.9974
lclavicle 1.17283e-014 6.75868e-015
lhumerus -8.84602 -18.4076 88.9962
lradius 30.9681
lwrist 11.4073
lhand -32.3271 -7.30851
lfingers 7.12502
lthumb -5.56454 22.5984
rfemur -28.7636 0.0309674 29.8165
rtibia 44.0545
rfoot -13.7399 -4.78209
rtoes -2.37299
lfemur -15.693 17.298 -9.3997
ltibia 54.4907
lfoot -29.73 24.0896
ltoes -6.22889
239
root 4.48556 16.9408 0.00582649 2.55532 -1.69827 -10.4486
lowerback 4.13386 -1.16425 12.736
upperback 7.38157 -1.53313 1.19286
thorax 5.25754 -0.129751 -5.8592
lowerneck -8.60055 -6.18934 -3.67181
upperneck 10.782 -9.47794 12.4484
head 5.45199 -4.02507 3.7625
rclavicle -2.18663e-015 -3.18055e-014
rhumerus -10.592 21.1711 -88.882
rradius 31.39
rwrist -4.16821
rhand -22.0477 -12.5011
rfingers 7.12502
rthumb 4.36267 -42.4361
lclavicle -2.18663e-015 -3.18055e-014
lhumerus -8.59183 -19.5895 88.9669
lradius 30.9776
lwrist 11.9229
lhand -32.5373 -6.78883
lfingers 7.12502
lthumb -5.76753 23.1127
rfemur -28.7863 0.0416316 29.7454
rtibia 44.5825
rfoot -13.56 -4.60358
rtoes -2.85513
lfemur -14.5914 17.3207 -9.37926
ltibia 53.6445
lfoot -30.2817 24.5511
ltoes -6.88015
240
root 4.51426 16.9226 -0.0138344 2.21785 -1.97853 -10.4508
lowerback 3.90483 -1.17528 12.5346
upperback 7.39631 -1.58627 1.18662
thorax 5.39192 -0.158223 -5.75853
lowerneck -8.38067 -6.09771 -3.54794
upperneck 11.2537 -9.40159 12.2828
head 5.53872 -3.98294 3.70251
rclavicle -1.11319e-014 1.55052e-014
rhumerus -10.3872 22.474 -88.6178
rradius 31.8938
rwrist -4.67498
rhand -20.6729 -12.9829
rfingers 7.12502
rthumb 5.69018 -42.8865
lclavicle -1.11319e-014 1.55052e-014
lhumerus -8.40141 -20.9371 88.8975
lradius 31.1354
lwrist 12.5329
lhand -32.526 -6.10179
lfingers 7.12502
lthumb -5.75659 23.8
rfemur -28.863 0.0292837 29.6558
rtibia 45.2482
rfoot -13.3214 -4.39339
rtoes -3.44928
lfemur -13.4393 17.3286 -9.38051
ltibia 52.6704
lfoot -30.9176 24.9211
ltoes -7.66709
241
root 4.54344 16.9035 -0.0321393 1.85652 -2.26269 -10.4303
lowerback 3.65852 -1.18809 12.3009
upperback 7.3944 -1.64152 1.17061
thorax 5.51762 -0.190595 -5.65095
lowerneck -8.20264 -6.00184 -3.42825
upperneck 11.776 -9.3215 12.1023
head 5.64797 -3.93668 3.63762
rclavicle 6.36111e-015 -2.0276e-014
rhumerus -10.2705 23.9125 -88.3125
rradius 32.6227
rwrist -5.25595
rhand -19.0807 -13.4894
rfingers 7.12502
rthumb 7.22725 -43.346
lclavicle 6.36111e-015 -2.0276e-014
lhumerus -8.28395 -22.4582 88.782
lradius 31.479
lwrist 13.2201
lhand -32.2758 -5.24953
lfingers 7.12502
lthumb -5.51499 24.6587
rfemur -29.0101 -0.014765 29.5399
rtibia 46.0742
rfoot -12.9996 -4.14247
rtoes -4.17128
lfemur -12.245 17.328 -9.41081
ltibia 51.589
lfoot -31.6164 25.2075
ltoes -8.49206
242
root 4.57304 16.8835 -0.0492049 1.46961 -2.54976 -10.3793
lowerback 3.39738 -1.20272 12.0305
upperback 7.37649 -1.69806 1.14192
thorax 5.63417 -0.22658 -5.5372
lowerneck -8.06816 -5.90142 -3.31328
upperneck 12.3464 -9.23721 11.9097
head 5.77966 -3.88614 3.56889
rclavicle 3.08116e-015 1.47101e-014
rhumerus -10.244 25.4872 -87.9596
rradius 33.5951
rwrist -5.90084
rhand -17.3109 -14.02
rfingers 7.12502
rthumb 8.9353 -43.8108
lclavicle 3.08116e-015 1.47101e-014
lhumerus -8.2447 -24.1559 88.613
lradius 32.0396
lwrist 13.9625
lhand -31.775 -4.24402
lfingers 7.12502
lthumb -5.03146 25.6762
rfemur -29.2413 -0.0982813 29.3883
rtibia 47.078
rfoot -12.5664 -3.84254
rtoes -5.01874
lfemur -11.0145 17.3252 -9.47753
ltibia 50.4237
lfoot -32.3534 25.4233
ltoes -9.2644
